<?xml version="1.0" encoding="utf-8" standalone="no"?>
<!DOCTYPE svg PUBLIC "-//W3C//DTD SVG 1.1//EN"
  "http://www.w3.org/Graphics/SVG/1.1/DTD/svg11.dtd">
<!-- Created with matplotlib (https://matplotlib.org/) -->
<svg height="80.07625pt" version="1.1" viewBox="0 0 81.51625 80.07625" width="81.51625pt" xmlns="http://www.w3.org/2000/svg" xmlns:xlink="http://www.w3.org/1999/xlink">
 <defs>
  <style type="text/css">
*{stroke-linecap:butt;stroke-linejoin:round;}
  </style>
 </defs>
 <g id="figure_1">
  <g id="patch_1">
   <path d="M 0 80.07625 
L 81.51625 80.07625 
L 81.51625 0 
L 0 0 
z
" style="fill:#ffffff;"/>
  </g>
  <g id="axes_1">
   <g id="patch_2">
    <path d="M 18.51625 61.56 
L 74.31625 61.56 
L 74.31625 7.2 
L 18.51625 7.2 
z
" style="fill:#ffffff;"/>
   </g>
   <g id="matplotlib.axis_1">
    <g id="text_1">
     <!-- Vs -->
     <defs>
      <path d="M 28.171875 0 
L 0.4375 71.578125 
L 10.6875 71.578125 
L 29.296875 19.578125 
Q 31.546875 13.328125 33.0625 7.859375 
Q 34.71875 13.71875 36.921875 19.578125 
L 56.25 71.578125 
L 65.921875 71.578125 
L 37.890625 0 
z
" id="ArialMT-86"/>
      <path d="M 3.078125 15.484375 
L 11.765625 16.84375 
Q 12.5 11.625 15.84375 8.84375 
Q 19.1875 6.0625 25.203125 6.0625 
Q 31.25 6.0625 34.171875 8.515625 
Q 37.109375 10.984375 37.109375 14.3125 
Q 37.109375 17.28125 34.515625 19 
Q 32.71875 20.171875 25.53125 21.96875 
Q 15.875 24.421875 12.140625 26.203125 
Q 8.40625 27.984375 6.46875 31.125 
Q 4.546875 34.28125 4.546875 38.09375 
Q 4.546875 41.546875 6.125 44.5 
Q 7.71875 47.46875 10.453125 49.421875 
Q 12.5 50.921875 16.03125 51.96875 
Q 19.578125 53.03125 23.640625 53.03125 
Q 29.734375 53.03125 34.34375 51.265625 
Q 38.96875 49.515625 41.15625 46.5 
Q 43.359375 43.5 44.1875 38.484375 
L 35.59375 37.3125 
Q 35.015625 41.3125 32.203125 43.546875 
Q 29.390625 45.796875 24.265625 45.796875 
Q 18.21875 45.796875 15.625 43.796875 
Q 13.03125 41.796875 13.03125 39.109375 
Q 13.03125 37.40625 14.109375 36.03125 
Q 15.1875 34.625 17.484375 33.6875 
Q 18.796875 33.203125 25.25 31.453125 
Q 34.578125 28.953125 38.25 27.359375 
Q 41.9375 25.78125 44.03125 22.75 
Q 46.140625 19.734375 46.140625 15.234375 
Q 46.140625 10.84375 43.578125 6.953125 
Q 41.015625 3.078125 36.171875 0.953125 
Q 31.34375 -1.171875 25.25 -1.171875 
Q 15.140625 -1.171875 9.84375 3.03125 
Q 4.546875 7.234375 3.078125 15.484375 
z
" id="ArialMT-115"/>
     </defs>
     <g transform="translate(41.748125 71.28625)scale(0.08 -0.08)">
      <use xlink:href="#ArialMT-86"/>
      <use x="66.699219" xlink:href="#ArialMT-115"/>
     </g>
    </g>
   </g>
   <g id="matplotlib.axis_2">
    <g id="text_2">
     <!-- Depth -->
     <defs>
      <path d="M 7.71875 0 
L 7.71875 71.578125 
L 32.375 71.578125 
Q 40.71875 71.578125 45.125 70.5625 
Q 51.265625 69.140625 55.609375 65.4375 
Q 61.28125 60.640625 64.078125 53.1875 
Q 66.890625 45.75 66.890625 36.1875 
Q 66.890625 28.03125 64.984375 21.734375 
Q 63.09375 15.4375 60.109375 11.296875 
Q 57.125 7.171875 53.578125 4.796875 
Q 50.046875 2.4375 45.046875 1.21875 
Q 40.046875 0 33.546875 0 
z
M 17.1875 8.453125 
L 32.46875 8.453125 
Q 39.546875 8.453125 43.578125 9.765625 
Q 47.609375 11.078125 50 13.484375 
Q 53.375 16.84375 55.25 22.53125 
Q 57.125 28.21875 57.125 36.328125 
Q 57.125 47.5625 53.4375 53.59375 
Q 49.75 59.625 44.484375 61.671875 
Q 40.671875 63.140625 32.234375 63.140625 
L 17.1875 63.140625 
z
" id="ArialMT-68"/>
      <path d="M 42.09375 16.703125 
L 51.171875 15.578125 
Q 49.03125 7.625 43.21875 3.21875 
Q 37.40625 -1.171875 28.375 -1.171875 
Q 17 -1.171875 10.328125 5.828125 
Q 3.65625 12.84375 3.65625 25.484375 
Q 3.65625 38.578125 10.390625 45.796875 
Q 17.140625 53.03125 27.875 53.03125 
Q 38.28125 53.03125 44.875 45.953125 
Q 51.46875 38.875 51.46875 26.03125 
Q 51.46875 25.25 51.421875 23.6875 
L 12.75 23.6875 
Q 13.234375 15.140625 17.578125 10.59375 
Q 21.921875 6.0625 28.421875 6.0625 
Q 33.25 6.0625 36.671875 8.59375 
Q 40.09375 11.140625 42.09375 16.703125 
z
M 13.234375 30.90625 
L 42.1875 30.90625 
Q 41.609375 37.453125 38.875 40.71875 
Q 34.671875 45.796875 27.984375 45.796875 
Q 21.921875 45.796875 17.796875 41.75 
Q 13.671875 37.703125 13.234375 30.90625 
z
" id="ArialMT-101"/>
      <path d="M 6.59375 -19.875 
L 6.59375 51.859375 
L 14.59375 51.859375 
L 14.59375 45.125 
Q 17.4375 49.078125 21 51.046875 
Q 24.5625 53.03125 29.640625 53.03125 
Q 36.28125 53.03125 41.359375 49.609375 
Q 46.4375 46.1875 49.015625 39.953125 
Q 51.609375 33.734375 51.609375 26.3125 
Q 51.609375 18.359375 48.75 11.984375 
Q 45.90625 5.609375 40.453125 2.21875 
Q 35.015625 -1.171875 29 -1.171875 
Q 24.609375 -1.171875 21.109375 0.6875 
Q 17.625 2.546875 15.375 5.375 
L 15.375 -19.875 
z
M 14.546875 25.640625 
Q 14.546875 15.625 18.59375 10.84375 
Q 22.65625 6.0625 28.421875 6.0625 
Q 34.28125 6.0625 38.453125 11.015625 
Q 42.625 15.96875 42.625 26.375 
Q 42.625 36.28125 38.546875 41.203125 
Q 34.46875 46.140625 28.8125 46.140625 
Q 23.1875 46.140625 18.859375 40.890625 
Q 14.546875 35.640625 14.546875 25.640625 
z
" id="ArialMT-112"/>
      <path d="M 25.78125 7.859375 
L 27.046875 0.09375 
Q 23.34375 -0.6875 20.40625 -0.6875 
Q 15.625 -0.6875 12.984375 0.828125 
Q 10.359375 2.34375 9.28125 4.8125 
Q 8.203125 7.28125 8.203125 15.1875 
L 8.203125 45.015625 
L 1.765625 45.015625 
L 1.765625 51.859375 
L 8.203125 51.859375 
L 8.203125 64.703125 
L 16.9375 69.96875 
L 16.9375 51.859375 
L 25.78125 51.859375 
L 25.78125 45.015625 
L 16.9375 45.015625 
L 16.9375 14.703125 
Q 16.9375 10.9375 17.40625 9.859375 
Q 17.875 8.796875 18.921875 8.15625 
Q 19.96875 7.515625 21.921875 7.515625 
Q 23.390625 7.515625 25.78125 7.859375 
z
" id="ArialMT-116"/>
      <path d="M 6.59375 0 
L 6.59375 71.578125 
L 15.375 71.578125 
L 15.375 45.90625 
Q 21.53125 53.03125 30.90625 53.03125 
Q 36.671875 53.03125 40.921875 50.75 
Q 45.171875 48.484375 47 44.484375 
Q 48.828125 40.484375 48.828125 32.859375 
L 48.828125 0 
L 40.046875 0 
L 40.046875 32.859375 
Q 40.046875 39.453125 37.1875 42.453125 
Q 34.328125 45.453125 29.109375 45.453125 
Q 25.203125 45.453125 21.75 43.421875 
Q 18.3125 41.40625 16.84375 37.9375 
Q 15.375 34.46875 15.375 28.375 
L 15.375 0 
z
" id="ArialMT-104"/>
     </defs>
     <g transform="translate(12.92625 45.053125)rotate(-90)scale(0.08 -0.08)">
      <use xlink:href="#ArialMT-68"/>
      <use x="72.216797" xlink:href="#ArialMT-101"/>
      <use x="127.832031" xlink:href="#ArialMT-112"/>
      <use x="183.447266" xlink:href="#ArialMT-116"/>
      <use x="211.230469" xlink:href="#ArialMT-104"/>
     </g>
    </g>
   </g>
   <g id="line2d_1">
    <path clip-path="url(#pa3b1b36327)" d="M 24.567884 7.2 
L 24.567884 8.157672 
L 24.689522 8.157672 
L 24.689522 8.487576 
L 24.876579 8.487576 
L 24.876579 10.796735 
L 26.433052 10.796735 
L 26.433052 12.02879 
L 27.437101 12.02879 
L 27.437101 14.464273 
L 28.176253 14.464273 
L 28.176253 17.679281 
L 30.303289 17.679281 
L 30.303289 20.637715 
L 30.540209 20.637715 
L 30.540209 22.866406 
L 33.936159 22.866406 
L 33.936159 27.614896 
L 37.519622 27.614896 
L 37.519622 30.966034 
L 40.360136 30.966034 
L 40.360136 40.62377 
L 42.886782 40.62377 
L 42.886782 45.428605 
L 54.085706 45.428605 
L 54.085706 51.096863 
L 54.800652 51.096863 
L 54.800652 81.07625 
" style="fill:none;stroke:#ababab;stroke-linecap:square;stroke-width:0.5;"/>
   </g>
   <g id="line2d_2">
    <path clip-path="url(#pa3b1b36327)" d="M 24.567884 7.2 
L 24.567884 8.02489 
L 24.628401 8.02489 
L 24.628401 8.462205 
L 24.689522 8.462205 
L 24.689522 10.937089 
L 26.672939 10.937089 
L 26.672939 12.90449 
L 28.370419 12.90449 
L 28.370419 20.750393 
L 34.403398 20.750393 
L 34.403398 29.635396 
L 39.094179 29.635396 
L 39.094179 40.838457 
L 52.024286 40.838457 
L 52.024286 51.172121 
L 58.199966 51.172121 
L 58.199966 81.07625 
" style="fill:none;stroke:#ababab;stroke-linecap:square;stroke-width:0.5;"/>
   </g>
   <g id="line2d_3">
    <path clip-path="url(#pa3b1b36327)" d="M 24.567884 7.2 
L 24.567884 8.157672 
L 24.689522 8.157672 
L 24.689522 10.384328 
L 26.354668 10.384328 
L 26.354668 14.011023 
L 29.401383 14.011023 
L 29.401383 19.841469 
L 29.731213 19.841469 
L 29.731213 23.835791 
L 38.095443 23.835791 
L 38.095443 42.976626 
L 54.800652 42.976626 
L 54.800652 81.07625 
" style="fill:none;stroke:#ababab;stroke-linecap:square;stroke-width:0.5;"/>
   </g>
   <g id="line2d_4">
    <path clip-path="url(#pa3b1b36327)" d="M 24.628401 7.2 
L 24.628401 7.992703 
L 24.940182 7.992703 
L 24.940182 11.407424 
L 27.799323 11.407424 
L 27.799323 19.199125 
L 33.632326 19.199125 
L 33.632326 33.919032 
L 53.733533 33.919032 
L 53.733533 81.07625 
" style="fill:none;stroke:#ababab;stroke-linecap:square;stroke-width:0.5;"/>
   </g>
   <g id="line2d_5">
    <path clip-path="url(#pa3b1b36327)" d="M 24.628401 7.2 
L 24.628401 10.943218 
L 27.526309 10.943218 
L 27.526309 17.938134 
L 32.200637 17.938134 
L 32.200637 31.201359 
L 51.692523 31.201359 
L 51.692523 81.07625 
" style="fill:none;stroke:#ababab;stroke-linecap:square;stroke-width:0.5;"/>
   </g>
   <g id="line2d_6">
    <path clip-path="url(#pa3b1b36327)" d="M 24.628401 7.2 
L 24.628401 9.816228 
L 25.612267 9.816228 
L 25.612267 12.445536 
L 28.468961 12.445536 
L 28.468961 21.506203 
L 35.89179 21.506203 
L 35.89179 37.359673 
L 51.364046 37.359673 
L 51.364046 81.07625 
" style="fill:none;stroke:#ababab;stroke-linecap:square;stroke-width:0.5;"/>
   </g>
   <g id="line2d_7">
    <path clip-path="url(#pa3b1b36327)" d="M 24.628401 7.2 
L 24.628401 10.943218 
L 27.437101 10.943218 
L 27.437101 17.72655 
L 32.065148 17.72655 
L 32.065148 28.289097 
L 32.475693 28.289097 
L 32.475693 30.254172 
L 47.958508 30.254172 
L 47.958508 35.739497 
L 48.550298 35.739497 
L 48.550298 50.261707 
L 56.651521 50.261707 
L 56.651521 81.07625 
" style="fill:none;stroke:#ababab;stroke-linecap:square;stroke-width:0.5;"/>
   </g>
   <g id="line2d_8">
    <path clip-path="url(#pa3b1b36327)" d="M 24.507967 7.2 
L 24.507967 9.568437 
L 25.472448 9.568437 
L 25.472448 12.291266 
L 27.004133 12.291266 
L 27.004133 13.100953 
L 28.66901 13.100953 
L 28.66901 17.809194 
L 29.293609 17.809194 
L 29.293609 21.852586 
L 30.660448 21.852586 
L 30.660448 23.6028 
L 35.380778 23.6028 
L 35.380778 26.530257 
L 40.14386 26.530257 
L 40.14386 53.337052 
L 54.085706 53.337052 
L 54.085706 81.07625 
" style="fill:none;stroke:#ababab;stroke-linecap:square;stroke-width:0.5;"/>
   </g>
   <g id="line2d_9">
    <path clip-path="url(#pa3b1b36327)" d="M 24.331752 7.2 
L 24.331752 7.939369 
L 24.751255 7.939369 
L 24.751255 10.866236 
L 26.433052 10.866236 
L 26.433052 11.710711 
L 27.089012 11.710711 
L 27.089012 13.91273 
L 28.080609 13.91273 
L 28.080609 15.761702 
L 28.568488 15.761702 
L 28.568488 16.880219 
L 29.731213 16.880219 
L 29.731213 17.734983 
L 30.071038 17.734983 
L 30.071038 20.633819 
L 31.666677 20.633819 
L 31.666677 25.826484 
L 31.931 25.826484 
L 31.931 26.892712 
L 32.898678 26.892712 
L 32.898678 28.225859 
L 39.094179 28.225859 
L 39.094179 29.463557 
L 43.625234 29.463557 
L 43.625234 57.567706 
L 54.4414 57.567706 
L 54.4414 81.07625 
" style="fill:none;stroke:#ababab;stroke-linecap:square;stroke-width:0.5;"/>
   </g>
   <g id="patch_3">
    <path d="M 18.51625 61.56 
L 18.51625 7.2 
" style="fill:none;stroke:#000000;stroke-linecap:square;stroke-linejoin:miter;stroke-width:0.8;"/>
   </g>
   <g id="patch_4">
    <path d="M 18.51625 61.56 
L 74.31625 61.56 
" style="fill:none;stroke:#000000;stroke-linecap:square;stroke-linejoin:miter;stroke-width:0.8;"/>
   </g>
  </g>
 </g>
 <defs>
  <clipPath id="pa3b1b36327">
   <rect height="54.36" width="55.8" x="18.51625" y="7.2"/>
  </clipPath>
 </defs>
</svg>
